<?xml version="1.0" encoding="UTF-8" standalone="no"?>
<!DOCTYPE svg PUBLIC "-//W3C//DTD SVG 1.1//EN" "http://www.w3.org/Graphics/SVG/1.1/DTD/svg11.dtd">
<svg xmlns="http://www.w3.org/2000/svg" version="1.1" viewBox="0.00 0.00 1024.00 1024.00">
<g stroke-width="2.00" fill="none" stroke-linecap="butt">
<path stroke="#744612" vector-effect="non-scaling-stroke" d="
  M 527.18 544.58
  L 513.24 544.55"
/>
<path stroke="#744612" vector-effect="non-scaling-stroke" d="
  M 436.36 604.16
  Q 434.83 604.27 433.91 606.02"
/>
<path stroke="#744612" vector-effect="non-scaling-stroke" d="
  M 428.51 608.52
  Q 423.08 607.56 421.39 609.23"
/>
<path stroke="#744612" vector-effect="non-scaling-stroke" d="
  M 406.14 621.45
  Q 404.47 621.11 402.94 621.95"
/>
<path stroke="#744612" vector-effect="non-scaling-stroke" d="
  M 372.65 608.06
  Q 372.32 607.49 371.98 607.33
  Q 371.42 607.09 371.33 607.68
  Q 371.13 608.93 371.95 609.30"
/>
<path stroke="#744612" vector-effect="non-scaling-stroke" d="
  M 372.61 619.23
  Q 371.83 621.59 372.94 622.73"
/>
<path stroke="#744612" vector-effect="non-scaling-stroke" d="
  M 357.78 535.78
  Q 358.55 535.80 358.77 534.99
  Q 358.95 534.30 358.58 533.52"
/>
<path stroke="#744612" vector-effect="non-scaling-stroke" d="
  M 336.59 620.35
  Q 336.07 622.45 336.63 624.60"
/>
<path stroke="#744612" vector-effect="non-scaling-stroke" d="
  M 500.48 533.01
  C 507.55 530.05 514.91 531.70 520.25 531.84
  Q 544.18 532.48 561.29 516.80
  Q 565.60 512.86 569.64 508.64
  Q 586.80 490.70 621.42 455.32
  C 630.80 445.74 643.21 432.12 652.32 423.47
  Q 656.93 419.09 658.33 415.89
  C 664.93 400.85 657.66 381.99 650.07 369.09
  Q 629.41 334.01 595.16 310.95
  Q 582.02 302.10 567.60 297.47
  C 556.52 293.91 540.10 293.47 531.71 301.95
  C 504.23 329.70 477.13 357.82 450.34 385.26
  Q 447.07 388.61 442.18 393.27
  Q 435.90 399.26 434.25 401.52
  Q 422.76 417.20 421.98 437.03
  Q 421.71 443.98 422.50 454.34
  C 422.99 460.85 420.08 466.58 416.80 472.04
  Q 410.79 482.05 403.42 491.03
  A 0.36 0.36 0.0 0 0 403.61 491.61
  C 424.20 496.82 441.87 510.74 454.84 527.35
  Q 466.71 542.57 470.84 559.48
  Q 470.97 560.03 471.37 559.63
  Q 479.23 551.82 493.48 537.73
  Q 496.60 534.64 500.48 533.01"
/>
<path stroke="#744612" vector-effect="non-scaling-stroke" d="
  M 438.20 555.59
  C 444.15 566.15 447.41 577.19 445.10 589.27
  Q 444.98 589.93 445.61 589.70
  C 452.06 587.39 459.19 582.43 460.13 575.07
  C 461.48 564.42 456.07 551.55 450.25 542.24
  Q 434.72 517.42 407.90 505.11
  C 400.67 501.79 387.02 498.16 381.67 505.70
  Q 378.91 509.60 378.01 514.48
  A 0.39 0.38 -86.3 0 0 378.40 514.93
  C 403.18 513.96 426.82 535.39 438.20 555.59"
/>
<path stroke="#744612" vector-effect="non-scaling-stroke" d="
  M 408.40 567.19
  C 397.63 556.15 381.42 544.50 365.96 542.83
  C 356.37 541.79 349.41 545.65 347.79 555.54
  Q 347.62 556.55 348.64 556.42
  Q 351.07 556.11 354.17 557.16
  C 363.06 560.17 370.91 565.96 377.54 572.53
  C 386.79 581.70 394.49 591.97 399.17 604.34
  Q 401.42 610.28 400.76 616.38
  A 0.66 0.66 0.0 0 0 401.47 617.11
  C 413.22 616.19 421.52 606.63 417.82 594.55
  Q 416.96 591.76 418.66 594.14
  Q 421.74 598.45 422.06 603.83
  A 0.65 0.65 0.0 0 0 422.99 604.38
  C 437.07 597.57 436.23 580.02 430.75 567.86
  Q 419.01 541.85 393.80 529.29
  C 384.68 524.75 367.47 520.78 363.23 533.95
  A 0.72 0.71 8.5 0 0 363.92 534.88
  C 383.72 534.64 399.28 551.18 408.78 566.89
  Q 409.87 568.69 408.40 567.19"
/>
<path stroke="#744612" vector-effect="non-scaling-stroke" d="
  M 349.82 671.13
  Q 349.31 670.90 348.41 670.19
  C 343.45 666.35 335.43 671.99 335.82 677.72
  C 336.66 690.43 365.82 690.65 374.51 690.29
  Q 389.72 689.66 400.00 688.74
  C 407.54 688.07 418.48 685.90 421.89 678.06
  C 424.52 671.99 420.00 669.10 415.18 667.20
  Q 408.03 664.38 393.53 662.94
  C 377.01 661.29 370.07 645.87 366.96 631.04
  Q 366.60 629.34 366.18 631.03
  Q 361.25 650.56 351.47 670.54
  A 1.27 1.25 25.0 0 1 349.82 671.13"
/>
<path stroke="#744612" vector-effect="non-scaling-stroke" d="
  M 535.08 433.96
  A 0.30 0.30 0.0 0 0 535.40 434.22
  L 574.31 430.81
  A 0.30 0.30 0.0 0 1 574.57 431.30
  L 552.29 459.02
  A 0.30 0.30 0.0 0 0 552.27 459.37
  L 569.20 486.72
  A 0.30 0.30 0.0 0 0 569.68 486.75
  L 587.21 466.74
  A 0.30 0.30 0.0 0 0 587.26 466.41
  L 581.66 454.61
  A 0.30 0.30 0.0 0 1 581.71 454.28
  L 626.29 403.37
  A 0.30 0.30 0.0 0 0 626.04 402.88
  L 555.07 409.10
  A 0.30 0.30 0.0 0 1 554.75 408.84
  L 547.11 334.95
  A 0.30 0.30 0.0 0 0 546.59 334.77
  L 502.52 380.44
  A 0.30 0.30 0.0 0 1 502.14 380.48
  L 490.11 373.14
  A 0.30 0.30 0.0 0 0 489.73 373.18
  L 473.14 390.38
  A 0.30 0.30 0.0 0 0 473.20 390.85
  L 503.57 409.38
  A 0.30 0.30 0.0 0 0 503.95 409.34
  L 529.31 383.05
  A 0.30 0.30 0.0 0 1 529.83 383.23
  L 535.08 433.96"
/>
<path stroke="#744612" vector-effect="non-scaling-stroke" d="
  M 528.66 519.63
  Q 530.16 513.46 527.45 506.57
  C 516.20 477.94 492.36 452.92 465.16 439.55
  C 459.80 436.92 449.80 433.12 444.42 434.63
  Q 443.78 434.81 444.44 434.89
  Q 448.32 435.33 453.07 437.20
  Q 465.44 442.07 476.20 449.83
  Q 505.74 471.11 522.35 503.67
  Q 526.42 511.65 528.37 519.63
  Q 528.52 520.22 528.66 519.63"
/>
<path stroke="#744612" vector-effect="non-scaling-stroke" d="
  M 325.99 609.81
  Q 325.79 609.34 325.62 609.24
  A 0.48 0.45 32.3 0 0 324.97 609.36
  C 321.93 614.29 316.95 622.88 319.04 628.50
  C 320.37 632.05 324.06 633.16 326.62 630.27
  C 331.30 624.98 328.65 616.12 325.99 609.81"
/>
<path stroke="#744612" vector-effect="non-scaling-stroke" d="
  M 573.69 764.71
  Q 573.16 764.62 573.03 765.24
  Q 572.96 765.59 573.68 765.96"
/>
</g>
<path fill="#000000" d="
  M 527.18 544.58
  L 513.24 544.55
  Q 508.17 544.13 505.81 544.38
  C 502.80 544.71 497.86 549.93 496.20 551.70
  Q 484.72 563.86 473.93 573.38
  A 2.84 2.83 -16.4 0 0 473.02 575.04
  Q 472.43 578.57 470.89 582.02
  C 468.50 587.34 461.90 591.07 456.43 592.62
  Q 452.18 593.83 444.93 595.64
  C 443.70 595.95 442.48 596.56 441.64 597.81
  Q 439.27 601.37 436.36 604.16
  Q 434.83 604.27 433.91 606.02
  L 428.51 608.52
  Q 423.08 607.56 421.39 609.23
  Q 416.79 619.00 406.14 621.45
  Q 404.47 621.11 402.94 621.95
  Q 396.30 622.05 389.67 619.03
  Q 380.11 614.67 372.65 608.06
  Q 372.32 607.49 371.98 607.33
  Q 371.42 607.09 371.33 607.68
  Q 371.13 608.93 371.95 609.30
  L 372.61 619.23
  Q 371.83 621.59 372.94 622.73
  C 374.19 633.28 378.76 649.67 389.62 654.80
  Q 391.67 655.77 398.34 656.50
  C 406.87 657.43 418.50 659.09 424.94 664.60
  C 426.60 666.02 428.62 665.92 430.25 665.87
  Q 487.86 663.98 531.75 665.32
  C 548.07 665.82 558.48 665.90 569.49 666.56
  C 576.62 666.98 583.61 666.96 590.83 667.41
  Q 624.79 669.51 637.80 671.12
  Q 650.68 672.71 659.33 674.88
  Q 662.67 675.72 666.96 677.98
  Q 667.39 678.21 667.54 678.66
  Q 668.85 682.51 665.28 684.51
  Q 662.07 686.31 659.04 687.07
  Q 651.22 689.05 642.19 690.43
  Q 624.24 693.18 606.44 694.40
  Q 561.73 697.47 555.75 697.59
  Q 537.89 697.94 519.75 698.49
  C 479.60 699.72 439.16 699.15 398.38 697.59
  Q 380.68 696.91 364.95 695.57
  Q 350.99 694.39 336.67 690.35
  Q 331.25 688.81 327.30 686.55
  Q 322.71 683.92 324.44 679.63
  C 325.27 677.57 327.14 677.16 328.55 675.67
  Q 328.90 675.30 329.00 674.81
  C 330.67 666.51 338.19 662.97 345.85 662.10
  A 2.49 2.47 -81.5 0 0 347.85 660.61
  Q 352.64 649.42 357.00 636.44
  Q 359.99 627.53 361.05 618.49
  Q 362.40 607.02 361.58 600.03
  C 361.26 597.39 361.30 596.07 359.41 593.84
  C 350.72 583.58 341.34 566.76 342.80 553.78
  Q 344.18 541.45 357.78 535.78
  Q 358.55 535.80 358.77 534.99
  Q 358.95 534.30 358.58 533.52
  Q 359.57 528.64 361.16 525.63
  C 363.34 521.48 366.92 519.30 371.07 517.18
  A 1.65 1.64 80.3 0 0 371.93 515.96
  Q 372.30 513.23 371.60 510.13
  Q 371.24 508.54 373.11 501.82
  C 375.26 494.07 381.45 491.26 388.90 490.03
  Q 389.40 489.95 389.70 489.55
  Q 391.60 487.01 400.08 476.36
  Q 404.01 471.42 407.87 464.13
  C 409.37 461.30 410.37 458.97 410.19 455.49
  Q 409.59 443.99 409.58 440.75
  Q 409.47 413.03 426.82 391.83
  C 429.82 388.16 434.88 384.18 438.48 380.48
  Q 501.09 316.09 563.58 251.58
  Q 573.03 241.82 577.86 238.43
  Q 585.93 232.78 595.82 230.27
  C 608.16 227.14 624.67 230.16 636.60 235.13
  Q 676.48 251.77 703.28 287.29
  Q 711.05 297.59 715.31 304.45
  C 722.01 315.24 727.06 327.23 728.36 339.55
  C 729.64 351.60 725.75 363.67 718.12 372.61
  Q 715.04 376.21 714.14 377.15
  Q 682.85 409.95 638.07 455.32
  C 632.32 461.15 626.66 467.53 621.14 473.07
  Q 596.76 497.55 578.56 516.81
  Q 574.29 521.32 570.33 525.08
  Q 557.10 537.64 539.45 542.72
  Q 536.94 543.45 527.18 544.58
  Z
  M 500.48 533.01
  C 507.55 530.05 514.91 531.70 520.25 531.84
  Q 544.18 532.48 561.29 516.80
  Q 565.60 512.86 569.64 508.64
  Q 586.80 490.70 621.42 455.32
  C 630.80 445.74 643.21 432.12 652.32 423.47
  Q 656.93 419.09 658.33 415.89
  C 664.93 400.85 657.66 381.99 650.07 369.09
  Q 629.41 334.01 595.16 310.95
  Q 582.02 302.10 567.60 297.47
  C 556.52 293.91 540.10 293.47 531.71 301.95
  C 504.23 329.70 477.13 357.82 450.34 385.26
  Q 447.07 388.61 442.18 393.27
  Q 435.90 399.26 434.25 401.52
  Q 422.76 417.20 421.98 437.03
  Q 421.71 443.98 422.50 454.34
  C 422.99 460.85 420.08 466.58 416.80 472.04
  Q 410.79 482.05 403.42 491.03
  A 0.36 0.36 0.0 0 0 403.61 491.61
  C 424.20 496.82 441.87 510.74 454.84 527.35
  Q 466.71 542.57 470.84 559.48
  Q 470.97 560.03 471.37 559.63
  Q 479.23 551.82 493.48 537.73
  Q 496.60 534.64 500.48 533.01
  Z
  M 438.20 555.59
  C 444.15 566.15 447.41 577.19 445.10 589.27
  Q 444.98 589.93 445.61 589.70
  C 452.06 587.39 459.19 582.43 460.13 575.07
  C 461.48 564.42 456.07 551.55 450.25 542.24
  Q 434.72 517.42 407.90 505.11
  C 400.67 501.79 387.02 498.16 381.67 505.70
  Q 378.91 509.60 378.01 514.48
  A 0.39 0.38 -86.3 0 0 378.40 514.93
  C 403.18 513.96 426.82 535.39 438.20 555.59
  Z
  M 408.40 567.19
  C 397.63 556.15 381.42 544.50 365.96 542.83
  C 356.37 541.79 349.41 545.65 347.79 555.54
  Q 347.62 556.55 348.64 556.42
  Q 351.07 556.11 354.17 557.16
  C 363.06 560.17 370.91 565.96 377.54 572.53
  C 386.79 581.70 394.49 591.97 399.17 604.34
  Q 401.42 610.28 400.76 616.38
  A 0.66 0.66 0.0 0 0 401.47 617.11
  C 413.22 616.19 421.52 606.63 417.82 594.55
  Q 416.96 591.76 418.66 594.14
  Q 421.74 598.45 422.06 603.83
  A 0.65 0.65 0.0 0 0 422.99 604.38
  C 437.07 597.57 436.23 580.02 430.75 567.86
  Q 419.01 541.85 393.80 529.29
  C 384.68 524.75 367.47 520.78 363.23 533.95
  A 0.72 0.71 8.5 0 0 363.92 534.88
  C 383.72 534.64 399.28 551.18 408.78 566.89
  Q 409.87 568.69 408.40 567.19
  Z
  M 349.82 671.13
  Q 349.31 670.90 348.41 670.19
  C 343.45 666.35 335.43 671.99 335.82 677.72
  C 336.66 690.43 365.82 690.65 374.51 690.29
  Q 389.72 689.66 400.00 688.74
  C 407.54 688.07 418.48 685.90 421.89 678.06
  C 424.52 671.99 420.00 669.10 415.18 667.20
  Q 408.03 664.38 393.53 662.94
  C 377.01 661.29 370.07 645.87 366.96 631.04
  Q 366.60 629.34 366.18 631.03
  Q 361.25 650.56 351.47 670.54
  A 1.27 1.25 25.0 0 1 349.82 671.13
  Z"
/>
<path fill="#e88c23" d="
  M 500.48 533.01
  Q 496.60 534.64 493.48 537.73
  Q 479.23 551.82 471.37 559.63
  Q 470.97 560.03 470.84 559.48
  Q 466.71 542.57 454.84 527.35
  C 441.87 510.74 424.20 496.82 403.61 491.61
  A 0.36 0.36 0.0 0 1 403.42 491.03
  Q 410.79 482.05 416.80 472.04
  C 420.08 466.58 422.99 460.85 422.50 454.34
  Q 421.71 443.98 421.98 437.03
  Q 422.76 417.20 434.25 401.52
  Q 435.90 399.26 442.18 393.27
  Q 447.07 388.61 450.34 385.26
  C 477.13 357.82 504.23 329.70 531.71 301.95
  C 540.10 293.47 556.52 293.91 567.60 297.47
  Q 582.02 302.10 595.16 310.95
  Q 629.41 334.01 650.07 369.09
  C 657.66 381.99 664.93 400.85 658.33 415.89
  Q 656.93 419.09 652.32 423.47
  C 643.21 432.12 630.80 445.74 621.42 455.32
  Q 586.80 490.70 569.64 508.64
  Q 565.60 512.86 561.29 516.80
  Q 544.18 532.48 520.25 531.84
  C 514.91 531.70 507.55 530.05 500.48 533.01
  Z
  M 535.08 433.96
  A 0.30 0.30 0.0 0 0 535.40 434.22
  L 574.31 430.81
  A 0.30 0.30 0.0 0 1 574.57 431.30
  L 552.29 459.02
  A 0.30 0.30 0.0 0 0 552.27 459.37
  L 569.20 486.72
  A 0.30 0.30 0.0 0 0 569.68 486.75
  L 587.21 466.74
  A 0.30 0.30 0.0 0 0 587.26 466.41
  L 581.66 454.61
  A 0.30 0.30 0.0 0 1 581.71 454.28
  L 626.29 403.37
  A 0.30 0.30 0.0 0 0 626.04 402.88
  L 555.07 409.10
  A 0.30 0.30 0.0 0 1 554.75 408.84
  L 547.11 334.95
  A 0.30 0.30 0.0 0 0 546.59 334.77
  L 502.52 380.44
  A 0.30 0.30 0.0 0 1 502.14 380.48
  L 490.11 373.14
  A 0.30 0.30 0.0 0 0 489.73 373.18
  L 473.14 390.38
  A 0.30 0.30 0.0 0 0 473.20 390.85
  L 503.57 409.38
  A 0.30 0.30 0.0 0 0 503.95 409.34
  L 529.31 383.05
  A 0.30 0.30 0.0 0 1 529.83 383.23
  L 535.08 433.96
  Z
  M 528.66 519.63
  Q 530.16 513.46 527.45 506.57
  C 516.20 477.94 492.36 452.92 465.16 439.55
  C 459.80 436.92 449.80 433.12 444.42 434.63
  Q 443.78 434.81 444.44 434.89
  Q 448.32 435.33 453.07 437.20
  Q 465.44 442.07 476.20 449.83
  Q 505.74 471.11 522.35 503.67
  Q 526.42 511.65 528.37 519.63
  Q 528.52 520.22 528.66 519.63
  Z"
/>
<path fill="#000000" d="
  M 535.08 433.96
  L 529.83 383.23
  A 0.30 0.30 0.0 0 0 529.31 383.05
  L 503.95 409.34
  A 0.30 0.30 0.0 0 1 503.57 409.38
  L 473.20 390.85
  A 0.30 0.30 0.0 0 1 473.14 390.38
  L 489.73 373.18
  A 0.30 0.30 0.0 0 1 490.11 373.14
  L 502.14 380.48
  A 0.30 0.30 0.0 0 0 502.52 380.44
  L 546.59 334.77
  A 0.30 0.30 0.0 0 1 547.11 334.95
  L 554.75 408.84
  A 0.30 0.30 0.0 0 0 555.07 409.10
  L 626.04 402.88
  A 0.30 0.30 0.0 0 1 626.29 403.37
  L 581.71 454.28
  A 0.30 0.30 0.0 0 0 581.66 454.61
  L 587.26 466.41
  A 0.30 0.30 0.0 0 1 587.21 466.74
  L 569.68 486.75
  A 0.30 0.30 0.0 0 1 569.20 486.72
  L 552.27 459.37
  A 0.30 0.30 0.0 0 1 552.29 459.02
  L 574.57 431.30
  A 0.30 0.30 0.0 0 0 574.31 430.81
  L 535.40 434.22
  A 0.30 0.30 0.0 0 1 535.08 433.96
  Z"
/>
<path fill="#000000" d="
  M 528.37 519.63
  Q 526.42 511.65 522.35 503.67
  Q 505.74 471.11 476.20 449.83
  Q 465.44 442.07 453.07 437.20
  Q 448.32 435.33 444.44 434.89
  Q 443.78 434.81 444.42 434.63
  C 449.80 433.12 459.80 436.92 465.16 439.55
  C 492.36 452.92 516.20 477.94 527.45 506.57
  Q 530.16 513.46 528.66 519.63
  Q 528.52 520.22 528.37 519.63
  Z"
/>
<path fill="#e88c23" d="
  M 445.10 589.27
  C 447.41 577.19 444.15 566.15 438.20 555.59
  C 426.82 535.39 403.18 513.96 378.40 514.93
  A 0.39 0.38 -86.3 0 1 378.01 514.48
  Q 378.91 509.60 381.67 505.70
  C 387.02 498.16 400.67 501.79 407.90 505.11
  Q 434.72 517.42 450.25 542.24
  C 456.07 551.55 461.48 564.42 460.13 575.07
  C 459.19 582.43 452.06 587.39 445.61 589.70
  Q 444.98 589.93 445.10 589.27
  Z"
/>
<path fill="#e88c23" d="
  M 408.40 567.19
  Q 409.87 568.69 408.78 566.89
  C 399.28 551.18 383.72 534.64 363.92 534.88
  A 0.72 0.71 8.5 0 1 363.23 533.95
  C 367.47 520.78 384.68 524.75 393.80 529.29
  Q 419.01 541.85 430.75 567.86
  C 436.23 580.02 437.07 597.57 422.99 604.38
  A 0.65 0.65 0.0 0 1 422.06 603.83
  Q 421.74 598.45 418.66 594.14
  Q 416.96 591.76 417.82 594.55
  C 421.52 606.63 413.22 616.19 401.47 617.11
  A 0.66 0.66 0.0 0 1 400.76 616.38
  Q 401.42 610.28 399.17 604.34
  C 394.49 591.97 386.79 581.70 377.54 572.53
  C 370.91 565.96 363.06 560.17 354.17 557.16
  Q 351.07 556.11 348.64 556.42
  Q 347.62 556.55 347.79 555.54
  C 349.41 545.65 356.37 541.79 365.96 542.83
  C 381.42 544.50 397.63 556.15 408.40 567.19
  Z"
/>
<path fill="#e88c23" d="
  M 358.58 533.52
  Q 358.95 534.30 358.77 534.99
  Q 358.55 535.80 357.78 535.78
  L 358.58 533.52
  Z"
/>
<path fill="#e88c23" d="
  M 527.18 544.58
  Q 520.24 545.30 513.24 544.55
  L 527.18 544.58
  Z"
/>
<path fill="#000000" d="
  M 336.59 620.35
  Q 336.07 622.45 336.63 624.60
  Q 336.07 629.48 334.05 632.77
  C 330.37 638.74 322.39 640.85 316.62 636.55
  C 311.66 632.85 310.40 626.38 311.51 620.59
  Q 314.02 607.47 324.32 599.32
  Q 325.97 598.02 327.50 599.73
  Q 335.39 608.55 336.59 620.35
  Z
  M 325.99 609.81
  Q 325.79 609.34 325.62 609.24
  A 0.48 0.45 32.3 0 0 324.97 609.36
  C 321.93 614.29 316.95 622.88 319.04 628.50
  C 320.37 632.05 324.06 633.16 326.62 630.27
  C 331.30 624.98 328.65 616.12 325.99 609.81
  Z"
/>
<path fill="#e88c23" d="
  M 436.36 604.16
  L 433.91 606.02
  Q 434.83 604.27 436.36 604.16
  Z"
/>
<path fill="#e88c23" d="
  M 372.65 608.06
  Q 372.09 608.79 371.95 609.30
  Q 371.13 608.93 371.33 607.68
  Q 371.42 607.09 371.98 607.33
  Q 372.32 607.49 372.65 608.06
  Z"
/>
<path fill="#e88c23" d="
  M 428.51 608.52
  L 421.39 609.23
  Q 423.08 607.56 428.51 608.52
  Z"
/>
<path fill="#e88c23" d="
  M 325.99 609.81
  C 328.65 616.12 331.30 624.98 326.62 630.27
  C 324.06 633.16 320.37 632.05 319.04 628.50
  C 316.95 622.88 321.93 614.29 324.97 609.36
  A 0.48 0.45 32.3 0 1 325.62 609.24
  Q 325.79 609.34 325.99 609.81
  Z"
/>
<path fill="#e88c23" d="
  M 372.61 619.23
  L 372.94 622.73
  Q 371.83 621.59 372.61 619.23
  Z"
/>
<path fill="#e88c23" d="
  M 336.59 620.35
  Q 337.32 622.42 336.63 624.60
  Q 336.07 622.45 336.59 620.35
  Z"
/>
<path fill="#e88c23" d="
  M 406.14 621.45
  Q 404.93 621.94 402.94 621.95
  Q 404.47 621.11 406.14 621.45
  Z"
/>
<path fill="#e88c23" d="
  M 349.82 671.13
  A 1.27 1.25 25.0 0 0 351.47 670.54
  Q 361.25 650.56 366.18 631.03
  Q 366.60 629.34 366.96 631.04
  C 370.07 645.87 377.01 661.29 393.53 662.94
  Q 408.03 664.38 415.18 667.20
  C 420.00 669.10 424.52 671.99 421.89 678.06
  C 418.48 685.90 407.54 688.07 400.00 688.74
  Q 389.72 689.66 374.51 690.29
  C 365.82 690.65 336.66 690.43 335.82 677.72
  C 335.43 671.99 343.45 666.35 348.41 670.19
  Q 349.31 670.90 349.82 671.13
  Z"
/>
<path fill="#000000" d="
  M 384.44 723.07
  Q 395.50 723.00 404.19 727.69
  C 418.73 735.53 424.54 750.16 422.44 766.13
  C 420.60 780.13 410.21 790.93 396.74 794.43
  Q 391.38 795.83 384.89 795.87
  Q 378.41 795.91 373.03 794.58
  C 359.52 791.25 348.99 780.58 346.98 766.60
  C 344.68 750.66 350.31 735.96 364.74 727.94
  Q 373.37 723.14 384.44 723.07
  Z
  M 403.7280 756.3377
  A 17.51 17.51 0.0 0 0 385.3256 739.7681
  L 381.9303 739.9460
  A 17.51 17.51 0.0 0 0 365.3607 758.3484
  L 365.5920 762.7623
  A 17.51 17.51 0.0 0 0 383.9944 779.3319
  L 387.3897 779.1540
  A 17.51 17.51 0.0 0 0 403.9593 760.7516
  L 403.7280 756.3377
  Z"
/>
<path fill="#000000" d="
  M 467.39 774.27
  C 466.55 770.48 463.99 770.09 460.13 769.04
  C 448.45 765.83 431.44 763.78 429.70 747.97
  C 428.86 740.41 432.04 731.98 438.86 728.11
  C 451.85 720.75 466.50 722.56 480.34 727.02
  C 482.94 727.86 483.36 729.62 482.41 732.10
  Q 481.07 735.63 477.90 742.64
  A 0.99 0.99 0.0 0 1 476.90 743.22
  C 473.81 742.91 471.78 741.36 469.02 740.70
  C 462.25 739.06 456.74 737.80 450.62 740.38
  Q 447.50 741.70 447.83 744.70
  C 448.42 750.00 459.34 752.03 463.30 752.88
  C 477.18 755.85 487.25 760.29 485.91 776.23
  C 484.95 787.68 475.85 793.88 464.87 795.35
  C 453.05 796.92 439.27 795.55 428.67 789.74
  A 2.97 2.97 0.0 0 1 427.37 785.96
  L 432.00 775.21
  A 1.70 1.70 0.0 0 1 434.41 774.41
  C 439.70 777.43 447.33 779.59 452.94 780.36
  C 455.44 780.70 464.74 780.63 466.52 777.68
  Q 467.71 775.70 467.39 774.27
  Z"
/>
<path fill="#000000" d="
  M 297.09 765.11
  A 0.36 0.36 0.0 0 0 297.71 765.10
  Q 308.98 745.23 320.22 726.69
  C 321.52 724.54 322.38 724.11 324.87 724.13
  Q 329.93 724.18 334.56 724.00
  Q 337.02 723.90 337.02 726.35
  L 337.02 794.49
  A 0.41 0.40 0.0 0 1 336.61 794.89
  L 321.19 794.89
  A 1.29 1.28 -0.7 0 1 319.90 793.64
  L 319.24 762.92
  A 0.78 0.78 0.0 0 0 318.85 762.26
  Q 318.44 762.01 317.94 762.16
  Q 317.69 762.24 317.45 762.74
  Q 315.03 767.89 314.58 768.59
  Q 308.53 777.85 307.01 780.51
  Q 302.52 788.32 301.66 789.52
  Q 301.37 789.91 300.89 789.91
  L 294.13 789.91
  A 3.11 3.10 -15.9 0 1 291.49 788.44
  L 276.25 763.81
  Q 274.37 760.78 274.41 764.34
  L 274.69 793.17
  A 1.49 1.49 0.0 0 1 273.20 794.68
  L 257.94 794.68
  A 0.95 0.95 0.0 0 1 256.99 793.73
  L 256.99 726.50
  A 2.45 2.45 0.0 0 1 259.39 724.05
  L 269.50 723.84
  A 3.54 3.53 73.3 0 1 272.59 725.51
  L 297.09 765.11
  Z"
/>
<path fill="#000000" d="
  M 566.41 781.77
  L 561.30 793.63
  A 1.96 1.96 0.0 0 1 559.50 794.82
  L 542.53 794.82
  A 0.58 0.58 0.0 0 1 542.00 794.01
  L 571.24 726.11
  A 3.34 3.34 0.0 0 1 574.31 724.09
  L 589.00 724.09
  A 2.08 2.08 0.0 0 1 590.90 725.32
  Q 602.31 750.90 619.49 790.15
  C 620.04 791.41 620.01 792.65 620.47 793.87
  A 0.73 0.72 79.4 0 1 619.80 794.86
  L 602.65 794.86
  A 1.22 1.22 0.0 0 1 601.52 794.10
  L 596.62 782.21
  A 2.77 2.77 0.0 0 0 593.97 780.49
  Q 586.67 780.70 570.52 780.69
  Q 568.11 780.69 567.00 781.17
  Q 566.59 781.35 566.41 781.77
  Z
  M 573.69 764.71
  Q 573.16 764.62 573.03 765.24
  Q 572.96 765.59 573.68 765.96
  L 588.65 765.84
  Q 589.17 765.84 589.17 765.32
  Q 589.19 763.34 588.83 762.59
  Q 584.94 754.44 581.94 746.20
  A 0.57 0.57 0.0 0 0 581.58 745.84
  Q 580.79 745.54 580.45 746.53
  Q 577.84 754.20 574.24 762.13
  C 573.86 762.97 573.89 763.81 573.69 764.71
  Z"
/>
<path fill="#000000" d="
  M 646.91 776.55
  A 0.94 0.94 0.0 0 0 645.93 777.49
  L 645.93 793.34
  A 1.49 1.48 -90.0 0 1 644.45 794.83
  L 629.43 794.83
  Q 627.13 794.83 627.13 792.52
  L 627.13 726.97
  A 2.82 2.82 0.0 0 1 629.93 724.15
  Q 646.19 724.03 662.28 724.11
  Q 664.87 724.12 671.08 725.94
  Q 675.99 727.37 679.00 729.71
  C 683.76 733.42 687.01 738.36 687.91 744.47
  C 689.49 755.27 686.79 766.27 676.84 771.48
  A 2.14 2.13 -32.3 0 0 676.12 774.66
  L 690.93 794.37
  A 0.33 0.33 0.0 0 1 690.66 794.90
  L 670.70 794.90
  A 1.46 1.43 -17.5 0 1 669.52 794.30
  Q 664.24 786.87 657.79 777.77
  Q 656.59 776.09 654.17 776.32
  Q 650.24 776.70 646.91 776.55
  Z
  M 645.93 740.58
  L 645.97 760.26
  A 0.70 0.70 0.0 0 0 646.67 760.96
  L 657.92 760.94
  A 12.07 9.70 -0.1 0 0 669.97 751.22
  L 669.97 749.54
  A 12.07 9.70 -0.1 0 0 657.88 739.86
  L 646.63 739.88
  A 0.70 0.70 0.0 0 0 645.93 740.58
  Z"
/>
<path fill="#000000" d="
  M 698.28 725.88
  A 1.87 1.87 0.0 0 1 700.16 724.02
  L 733.71 724.19
  A 34.51 31.90 0.3 0 1 768.06 756.27
  L 768.02 762.97
  A 34.51 31.90 0.3 0 1 733.35 794.69
  L 699.79 794.52
  A 1.87 1.87 0.0 0 1 697.93 792.64
  L 698.28 725.88
  Z
  M 716.67 741.79
  L 716.61 777.05
  A 1.78 1.78 0.0 0 0 718.39 778.83
  L 730.14 778.85
  A 19.33 17.88 0.1 0 0 749.50 761.01
  L 749.50 757.95
  A 19.33 17.88 0.1 0 0 730.20 740.03
  L 718.45 740.01
  A 1.78 1.78 0.0 0 0 716.67 741.79
  Z"
/>
<path fill="#000000" d="
  M 517.91 724.21
  Q 531.80 724.17 545.45 724.20
  A 2.49 2.49 0.0 0 1 547.93 726.69
  L 547.93 737.90
  A 1.86 1.85 0.0 0 1 546.07 739.75
  L 529.51 739.75
  Q 527.24 739.75 527.24 742.02
  L 527.24 794.09
  A 0.86 0.86 0.0 0 1 526.36 794.95
  Q 522.21 794.86 518.11 794.87
  Q 514.01 794.88 509.86 795.00
  A 0.86 0.86 0.0 0 1 508.98 794.14
  L 508.68 742.07
  Q 508.66 739.80 506.39 739.82
  L 489.83 739.91
  A 1.86 1.85 -0.3 0 1 487.96 738.07
  L 487.90 726.86
  A 2.49 2.49 0.0 0 1 490.37 724.36
  Q 504.02 724.25 517.91 724.21
  Z"
/>
<path fill="#e88c23" d="
  M 573.69 764.71
  Q 573.52 765.21 573.68 765.96
  Q 572.96 765.59 573.03 765.24
  Q 573.16 764.62 573.69 764.71
  Z"
/>
</svg>
