<?xml version="1.0" encoding="UTF-8" standalone="no"?>
<!DOCTYPE svg PUBLIC "-//W3C//DTD SVG 1.1//EN" "http://www.w3.org/Graphics/SVG/1.1/DTD/svg11.dtd">
<svg xmlns="http://www.w3.org/2000/svg" version="1.1" viewBox="0.00 0.00 1024.00 1024.00">
<g stroke-width="2.00" fill="none" stroke-linecap="butt">
<path stroke="#727272" vector-effect="non-scaling-stroke" d="
  M 371.68 606.90
  C 379.81 614.41 392.82 622.63 404.07 621.31
  Q 413.97 620.15 419.66 611.94
  C 420.20 611.17 420.91 609.44 421.57 608.72
  Q 421.97 608.28 422.56 608.34
  Q 432.91 609.32 439.90 599.78
  Q 441.69 597.33 442.63 596.17
  A 1.51 1.48 -76.0 0 1 443.46 595.66
  Q 453.53 593.36 459.44 591.19
  Q 471.37 586.80 472.77 574.34
  Q 472.83 573.84 473.23 573.53
  Q 474.94 572.21 476.12 571.11
  Q 485.82 562.13 498.70 548.95
  C 501.25 546.35 503.87 543.70 507.37 543.91
  Q 513.37 544.27 521.38 544.33
  Q 545.40 544.52 564.08 530.19
  Q 568.42 526.86 578.55 516.39
  Q 620.84 472.67 662.19 430.20
  Q 708.06 383.09 712.37 378.62
  Q 717.75 373.05 721.52 367.31
  C 741.62 336.72 712.68 297.27 692.49 274.90
  Q 668.77 248.63 636.56 235.49
  C 622.73 229.84 605.20 226.82 591.01 231.98
  Q 583.42 234.74 576.63 239.52
  Q 572.88 242.16 564.83 250.48
  Q 508.15 309.10 451.34 367.59
  Q 437.64 381.69 432.63 386.37
  Q 426.10 392.48 423.13 396.84
  Q 409.01 417.58 409.73 443.01
  Q 409.93 449.76 410.56 456.49
  C 410.64 457.31 410.44 458.81 410.18 459.43
  Q 405.82 469.77 399.95 476.95
  Q 392.56 486.00 389.48 489.96
  Q 389.17 490.36 388.66 490.42
  C 380.58 491.39 375.19 494.81 372.86 502.78
  C 371.43 507.66 371.84 511.31 372.24 516.07
  Q 372.28 516.58 371.83 516.83
  C 363.16 521.49 360.21 524.98 358.67 534.91
  Q 358.54 535.74 357.75 536.04
  C 342.70 541.68 340.28 555.31 345.36 569.15
  Q 350.71 583.71 361.06 595.46
  Q 361.39 595.84 361.44 596.34
  C 362.83 610.75 361.37 624.08 356.63 638.08
  Q 352.86 649.22 347.66 661.53
  A 0.95 0.93 8.9 0 1 346.85 662.11
  C 338.96 662.62 331.01 666.37 329.24 674.88
  Q 329.14 675.36 328.76 675.68
  C 326.25 677.79 322.83 679.95 324.38 683.31
  C 326.94 688.85 342.88 692.11 348.53 693.06
  Q 361.84 695.31 375.05 696.18
  Q 401.78 697.95 433.77 698.56
  C 490.25 699.63 546.04 698.65 601.79 694.57
  C 607.84 694.12 671.85 689.71 667.67 679.95
  C 664.24 671.94 613.88 669.05 604.27 668.47
  C 545.39 664.93 486.52 664.45 426.92 666.02
  A 1.94 1.92 -23.6 0 1 425.53 665.48
  C 419.01 659.25 406.42 657.54 397.53 656.64
  Q 391.93 656.08 389.57 654.98
  C 384.27 652.53 380.22 647.15 378.10 642.17
  Q 370.96 625.40 371.50 606.98
  A 0.11 0.11 0.0 0 1 371.68 606.90"
/>
<path stroke="#727272" vector-effect="non-scaling-stroke" d="
  M 322.62 638.54
  C 329.59 639.13 334.48 633.86 335.83 627.25
  C 337.71 618.11 333.75 606.76 327.68 599.83
  Q 326.95 599.00 325.96 598.92
  Q 324.97 598.83 324.11 599.53
  C 316.96 605.34 311.16 615.87 311.48 625.20
  C 311.70 631.94 315.64 637.95 322.62 638.54"
/>
<path stroke="#727272" vector-effect="non-scaling-stroke" d="
  M 346.70 760.44
  C 347.18 782.65 363.99 796.30 385.45 795.83
  C 406.90 795.37 423.11 781.00 422.63 758.79
  C 422.14 736.57 405.33 722.93 383.88 723.39
  C 362.42 723.86 346.22 738.22 346.70 760.44"
/>
<path stroke="#727272" vector-effect="non-scaling-stroke" d="
  M 449.13 740.92
  Q 450.73 739.67 451.62 739.53
  Q 464.33 737.43 476.12 743.72
  A 0.84 0.84 0.0 0 0 477.28 743.31
  L 483.28 729.44
  A 0.82 0.82 0.0 0 0 482.85 728.36
  C 472.80 724.07 460.39 722.18 449.99 724.13
  C 440.06 726.00 431.94 731.03 430.07 741.31
  C 428.41 750.46 432.14 758.81 440.56 762.85
  C 446.84 765.85 454.00 767.02 460.86 768.93
  C 464.68 770.00 468.67 771.84 467.40 776.47
  C 466.85 778.48 463.78 780.02 462.09 780.21
  Q 446.75 781.98 433.31 773.96
  A 0.45 0.45 0.0 0 0 432.67 774.17
  L 426.96 787.38
  A 0.81 0.81 0.0 0 0 427.20 788.34
  C 436.48 795.82 457.72 797.50 468.67 794.43
  C 477.85 791.85 484.63 786.31 485.66 776.72
  C 487.71 757.70 472.30 754.81 457.90 751.67
  Q 453.45 750.71 450.17 748.61
  C 447.61 746.98 446.34 743.09 449.13 740.92"
/>
<path stroke="#727272" vector-effect="non-scaling-stroke" d="
  M 274.06 794.48
  A 0.33 0.33 0.0 0 0 274.39 794.15
  L 274.39 761.59
  A 0.33 0.33 0.0 0 1 275.00 761.42
  L 292.42 789.38
  A 0.33 0.33 0.0 0 0 292.70 789.54
  L 301.20 789.54
  A 0.33 0.33 0.0 0 0 301.48 789.38
  L 319.10 760.59
  A 0.33 0.33 0.0 0 1 319.71 760.76
  L 319.71 794.31
  A 0.33 0.33 0.0 0 0 320.04 794.64
  L 336.61 794.64
  A 0.33 0.33 0.0 0 0 336.94 794.31
  L 336.94 724.55
  A 0.33 0.33 0.0 0 0 336.61 724.22
  L 321.89 724.22
  A 0.33 0.33 0.0 0 0 321.60 724.39
  L 297.80 765.63
  A 0.33 0.33 0.0 0 1 297.23 765.64
  L 271.51 724.34
  A 0.33 0.33 0.0 0 0 271.23 724.18
  L 257.58 724.18
  A 0.33 0.33 0.0 0 0 257.25 724.51
  L 257.25 794.15
  A 0.33 0.33 0.0 0 0 257.58 794.48
  L 274.06 794.48"
/>
<path stroke="#727272" vector-effect="non-scaling-stroke" d="
  M 526.55 794.65
  A 0.42 0.42 0.0 0 0 526.97 794.23
  L 526.97 740.17
  A 0.42 0.42 0.0 0 1 527.39 739.75
  L 547.17 739.75
  A 0.42 0.42 0.0 0 0 547.59 739.33
  L 547.59 724.67
  A 0.42 0.42 0.0 0 0 547.17 724.25
  L 488.03 724.25
  A 0.42 0.42 0.0 0 0 487.61 724.67
  L 487.61 739.35
  A 0.42 0.42 0.0 0 0 488.03 739.77
  L 508.38 739.77
  A 0.42 0.42 0.0 0 1 508.80 740.19
  L 508.80 794.23
  A 0.42 0.42 0.0 0 0 509.22 794.65
  L 526.55 794.65"
/>
<path stroke="#727272" vector-effect="non-scaling-stroke" d="
  M 581.23 724.18
  Q 577.01 724.19 572.76 724.18
  A 0.80 0.79 -78.1 0 0 572.03 724.66
  L 542.01 794.03
  A 0.48 0.48 0.0 0 0 542.45 794.70
  L 560.44 794.70
  A 0.39 0.39 0.0 0 0 560.80 794.46
  L 566.80 780.59
  A 0.32 0.31 11.1 0 1 567.09 780.41
  Q 574.20 780.41 581.36 780.40
  Q 588.52 780.38 595.63 780.34
  A 0.32 0.31 -11.3 0 1 595.91 780.52
  L 601.98 794.37
  A 0.39 0.39 0.0 0 0 602.34 794.60
  L 620.33 794.52
  A 0.48 0.48 0.0 0 0 620.76 793.85
  L 590.43 724.62
  A 0.80 0.79 77.8 0 0 589.69 724.14
  Q 585.45 724.17 581.23 724.18"
/>
<path stroke="#727272" vector-effect="non-scaling-stroke" d="
  M 675.37 772.00
  C 684.97 767.73 689.10 757.46 688.08 747.25
  Q 686.52 731.64 671.64 726.38
  Q 666.26 724.48 661.97 724.35
  Q 651.24 724.01 628.11 724.38
  Q 627.51 724.39 627.51 724.99
  L 627.51 793.94
  Q 627.51 794.61 628.18 794.61
  L 645.07 794.61
  Q 645.61 794.61 645.61 794.07
  L 645.61 776.81
  Q 645.61 776.22 646.21 776.22
  L 656.06 776.22
  Q 656.54 776.22 656.83 776.60
  L 670.19 794.49
  A 0.24 0.08 59.0 0 0 670.34 794.62
  L 689.75 794.62
  A 0.52 0.52 0.0 0 0 690.17 793.79
  L 674.99 773.45
  Q 674.27 772.49 675.37 772.00"
/>
<path stroke="#727272" vector-effect="non-scaling-stroke" d="
  M 698.38 724.88
  L 698.38 793.88
  A 0.55 0.55 0.0 0 0 698.93 794.43
  L 733.09 794.43
  A 34.61 31.69 -0.0 0 0 767.70 762.74
  L 767.70 756.02
  A 34.61 31.69 0.0 0 0 733.09 724.33
  L 698.93 724.33
  A 0.55 0.55 0.0 0 0 698.38 724.88"
/>
<path stroke="#744612" vector-effect="non-scaling-stroke" d="
  M 504.49 531.73
  Q 508.74 530.96 514.07 531.42
  C 520.77 532.00 525.04 531.93 531.13 531.14
  C 544.25 529.44 555.66 522.95 564.77 513.52
  Q 589.71 487.75 616.34 460.49
  Q 625.06 451.56 630.25 446.12
  Q 646.81 428.76 652.49 423.31
  Q 657.17 418.81 658.54 415.44
  C 664.93 399.75 657.20 380.44 649.04 367.19
  Q 628.75 334.21 597.23 312.26
  C 581.31 301.18 556.54 289.32 537.22 298.11
  Q 534.23 299.47 529.97 303.76
  Q 527.61 306.13 517.00 317.00
  Q 465.88 369.33 448.64 387.06
  C 444.10 391.73 438.50 396.48 434.58 401.34
  C 424.98 413.23 421.23 429.04 422.01 444.79
  Q 422.55 455.55 422.55 455.57
  C 422.61 461.73 419.85 466.97 416.71 472.23
  Q 410.74 482.20 403.44 490.98
  Q 403.06 491.44 403.64 491.59
  C 430.44 498.49 452.98 519.93 465.30 543.99
  Q 469.12 551.45 470.85 559.77
  A 0.18 0.18 0.0 0 0 471.16 559.86
  Q 480.32 550.60 489.70 541.49
  C 495.20 536.14 498.10 532.88 504.49 531.73"
/>
<path stroke="#744612" vector-effect="non-scaling-stroke" d="
  M 445.59 586.43
  Q 445.18 589.24 445.15 589.43
  A 0.32 0.32 0.0 0 0 445.59 589.77
  C 454.57 585.96 461.50 580.70 460.32 569.76
  C 457.52 543.68 436.42 520.64 414.23 508.20
  Q 404.41 502.70 394.84 501.43
  C 384.72 500.08 380.11 505.39 378.01 514.27
  Q 377.85 514.95 378.55 514.93
  Q 388.79 514.68 396.62 518.01
  Q 419.68 527.84 434.24 549.19
  C 441.55 559.92 447.48 573.59 445.59 586.43"
/>
<path stroke="#744612" vector-effect="non-scaling-stroke" d="
  M 409.25 568.14
  Q 396.11 554.15 379.25 546.53
  C 367.88 541.38 350.32 538.66 347.72 555.97
  Q 347.64 556.46 348.13 556.40
  Q 351.05 556.07 354.11 557.14
  C 363.93 560.58 371.76 566.60 379.17 574.07
  Q 391.49 586.50 398.09 601.39
  Q 401.46 609.01 400.90 616.39
  Q 400.85 616.95 401.41 616.96
  Q 407.70 617.06 412.79 612.68
  Q 420.90 605.71 417.94 595.10
  Q 416.97 591.65 419.00 594.60
  Q 421.54 598.31 422.10 603.65
  A 0.89 0.89 0.0 0 0 423.42 604.32
  C 438.21 595.92 435.97 577.41 429.20 564.36
  Q 416.73 540.37 393.28 529.06
  C 384.24 524.70 366.58 520.93 363.24 534.39
  A 0.39 0.38 -83.6 0 0 363.62 534.87
  C 383.97 534.50 399.87 551.68 409.39 568.04
  A 0.09 0.09 0.0 0 1 409.25 568.14"
/>
<path stroke="#744612" vector-effect="non-scaling-stroke" d="
  M 349.81 671.15
  Q 349.29 670.85 348.36 670.17
  C 342.88 666.15 334.60 672.66 335.98 679.02
  C 339.07 693.19 378.59 690.22 388.69 689.58
  C 399.12 688.92 421.31 688.67 422.65 674.88
  C 423.52 665.89 399.22 663.65 392.71 662.88
  C 376.66 660.98 370.26 645.79 366.96 631.27
  Q 366.53 629.41 366.08 631.26
  Q 361.39 650.33 351.47 670.63
  A 1.20 1.19 27.5 0 1 349.81 671.15"
/>
<path stroke="#744612" vector-effect="non-scaling-stroke" d="
  M 574.57 431.34
  L 552.48 458.88
  Q 552.21 459.21 552.43 459.57
  L 569.25 486.57
  A 0.36 0.36 0.0 0 0 569.83 486.62
  L 586.58 467.46
  A 1.80 1.80 0.0 0 0 586.85 465.50
  L 581.72 454.88
  Q 581.53 454.47 581.82 454.13
  L 626.40 403.15
  Q 626.63 402.89 626.28 402.92
  L 555.07 409.08
  A 0.29 0.28 84.0 0 1 554.76 408.82
  L 547.07 335.29
  A 0.57 0.56 -26.8 0 0 546.09 334.97
  Q 524.95 358.08 502.35 380.26
  Q 502.10 380.50 501.80 380.32
  L 490.63 373.48
  Q 490.16 373.19 489.76 373.58
  L 472.90 390.29
  A 0.18 0.18 0.0 0 0 472.94 390.58
  L 502.87 408.91
  A 1.31 1.30 37.7 0 0 504.48 408.71
  L 528.85 383.47
  Q 529.79 382.50 529.93 383.85
  L 535.11 433.46
  Q 535.19 434.18 535.90 434.12
  L 574.27 430.80
  Q 575.06 430.73 574.57 431.34"
/>
<path stroke="#744612" vector-effect="non-scaling-stroke" d="
  M 481.14 453.46
  Q 508.40 475.00 523.26 505.47
  Q 527.03 513.21 528.31 519.94
  Q 528.52 521.04 528.72 519.94
  Q 530.03 512.66 527.13 505.65
  C 518.48 484.82 503.96 466.61 486.43 452.96
  C 475.01 444.06 460.35 434.95 446.02 434.30
  Q 442.86 434.16 445.94 434.91
  C 458.07 437.88 470.77 445.27 481.14 453.46"
/>
<path stroke="#744612" vector-effect="non-scaling-stroke" d="
  M 325.05 609.23
  C 321.82 614.49 316.04 624.43 319.76 629.79
  Q 322.40 633.60 325.94 630.79
  C 331.76 626.16 328.51 614.92 325.51 609.24
  A 0.26 0.26 0.0 0 0 325.05 609.23"
/>
<path stroke="#727272" vector-effect="non-scaling-stroke" d="
  M 403.8633 756.5649
  A 17.65 17.65 0.0 0 0 385.5192 739.6374
  L 382.1020 739.7747
  A 17.65 17.65 0.0 0 0 365.1745 758.1188
  L 365.3567 762.6551
  A 17.65 17.65 0.0 0 0 383.7008 779.5826
  L 387.1180 779.4453
  A 17.65 17.65 0.0 0 0 404.0455 761.1012
  L 403.8633 756.5649"
/>
<path stroke="#727272" vector-effect="non-scaling-stroke" d="
  M 572.68 765.77
  A 0.38 0.38 0.0 0 0 573.04 766.29
  L 589.61 766.11
  A 0.38 0.38 0.0 0 0 589.96 765.59
  L 581.46 745.11
  A 0.38 0.38 0.0 0 0 580.75 745.12
  L 572.68 765.77"
/>
<path stroke="#727272" vector-effect="non-scaling-stroke" d="
  M 645.71 740.24
  L 645.63 760.60
  A 0.45 0.45 0.0 0 0 646.08 761.05
  L 658.48 761.09
  A 11.37 9.62 0.2 0 0 669.89 751.51
  L 669.89 749.49
  A 11.37 9.62 0.2 0 0 658.56 739.83
  L 646.16 739.79
  A 0.45 0.45 0.0 0 0 645.71 740.24"
/>
<path stroke="#727272" vector-effect="non-scaling-stroke" d="
  M 716.38 740.30
  L 716.38 778.60
  A 0.38 0.38 0.0 0 0 716.76 778.98
  L 730.72 778.98
  A 18.86 18.07 -0.0 0 0 749.58 760.91
  L 749.58 757.99
  A 18.86 18.07 0.0 0 0 730.72 739.92
  L 716.76 739.92
  A 0.38 0.38 0.0 0 0 716.38 740.30"
/>
</g>
<path fill="#e4e4e4" d="
  M 1024.00 0.00
  L 1024.00 1024.00
  L 0.00 1024.00
  L 0.00 0.00
  L 1024.00 0.00
  Z
  M 371.68 606.90
  C 379.81 614.41 392.82 622.63 404.07 621.31
  Q 413.97 620.15 419.66 611.94
  C 420.20 611.17 420.91 609.44 421.57 608.72
  Q 421.97 608.28 422.56 608.34
  Q 432.91 609.32 439.90 599.78
  Q 441.69 597.33 442.63 596.17
  A 1.51 1.48 -76.0 0 1 443.46 595.66
  Q 453.53 593.36 459.44 591.19
  Q 471.37 586.80 472.77 574.34
  Q 472.83 573.84 473.23 573.53
  Q 474.94 572.21 476.12 571.11
  Q 485.82 562.13 498.70 548.95
  C 501.25 546.35 503.87 543.70 507.37 543.91
  Q 513.37 544.27 521.38 544.33
  Q 545.40 544.52 564.08 530.19
  Q 568.42 526.86 578.55 516.39
  Q 620.84 472.67 662.19 430.20
  Q 708.06 383.09 712.37 378.62
  Q 717.75 373.05 721.52 367.31
  C 741.62 336.72 712.68 297.27 692.49 274.90
  Q 668.77 248.63 636.56 235.49
  C 622.73 229.84 605.20 226.82 591.01 231.98
  Q 583.42 234.74 576.63 239.52
  Q 572.88 242.16 564.83 250.48
  Q 508.15 309.10 451.34 367.59
  Q 437.64 381.69 432.63 386.37
  Q 426.10 392.48 423.13 396.84
  Q 409.01 417.58 409.73 443.01
  Q 409.93 449.76 410.56 456.49
  C 410.64 457.31 410.44 458.81 410.18 459.43
  Q 405.82 469.77 399.95 476.95
  Q 392.56 486.00 389.48 489.96
  Q 389.17 490.36 388.66 490.42
  C 380.58 491.39 375.19 494.81 372.86 502.78
  C 371.43 507.66 371.84 511.31 372.24 516.07
  Q 372.28 516.58 371.83 516.83
  C 363.16 521.49 360.21 524.98 358.67 534.91
  Q 358.54 535.74 357.75 536.04
  C 342.70 541.68 340.28 555.31 345.36 569.15
  Q 350.71 583.71 361.06 595.46
  Q 361.39 595.84 361.44 596.34
  C 362.83 610.75 361.37 624.08 356.63 638.08
  Q 352.86 649.22 347.66 661.53
  A 0.95 0.93 8.9 0 1 346.85 662.11
  C 338.96 662.62 331.01 666.37 329.24 674.88
  Q 329.14 675.36 328.76 675.68
  C 326.25 677.79 322.83 679.95 324.38 683.31
  C 326.94 688.85 342.88 692.11 348.53 693.06
  Q 361.84 695.31 375.05 696.18
  Q 401.78 697.95 433.77 698.56
  C 490.25 699.63 546.04 698.65 601.79 694.57
  C 607.84 694.12 671.85 689.71 667.67 679.95
  C 664.24 671.94 613.88 669.05 604.27 668.47
  C 545.39 664.93 486.52 664.45 426.92 666.02
  A 1.94 1.92 -23.6 0 1 425.53 665.48
  C 419.01 659.25 406.42 657.54 397.53 656.64
  Q 391.93 656.08 389.57 654.98
  C 384.27 652.53 380.22 647.15 378.10 642.17
  Q 370.96 625.40 371.50 606.98
  A 0.11 0.11 0.0 0 1 371.68 606.90
  Z
  M 322.62 638.54
  C 329.59 639.13 334.48 633.86 335.83 627.25
  C 337.71 618.11 333.75 606.76 327.68 599.83
  Q 326.95 599.00 325.96 598.92
  Q 324.97 598.83 324.11 599.53
  C 316.96 605.34 311.16 615.87 311.48 625.20
  C 311.70 631.94 315.64 637.95 322.62 638.54
  Z
  M 346.70 760.44
  C 347.18 782.65 363.99 796.30 385.45 795.83
  C 406.90 795.37 423.11 781.00 422.63 758.79
  C 422.14 736.57 405.33 722.93 383.88 723.39
  C 362.42 723.86 346.22 738.22 346.70 760.44
  Z
  M 449.13 740.92
  Q 450.73 739.67 451.62 739.53
  Q 464.33 737.43 476.12 743.72
  A 0.84 0.84 0.0 0 0 477.28 743.31
  L 483.28 729.44
  A 0.82 0.82 0.0 0 0 482.85 728.36
  C 472.80 724.07 460.39 722.18 449.99 724.13
  C 440.06 726.00 431.94 731.03 430.07 741.31
  C 428.41 750.46 432.14 758.81 440.56 762.85
  C 446.84 765.85 454.00 767.02 460.86 768.93
  C 464.68 770.00 468.67 771.84 467.40 776.47
  C 466.85 778.48 463.78 780.02 462.09 780.21
  Q 446.75 781.98 433.31 773.96
  A 0.45 0.45 0.0 0 0 432.67 774.17
  L 426.96 787.38
  A 0.81 0.81 0.0 0 0 427.20 788.34
  C 436.48 795.82 457.72 797.50 468.67 794.43
  C 477.85 791.85 484.63 786.31 485.66 776.72
  C 487.71 757.70 472.30 754.81 457.90 751.67
  Q 453.45 750.71 450.17 748.61
  C 447.61 746.98 446.34 743.09 449.13 740.92
  Z
  M 274.06 794.48
  A 0.33 0.33 0.0 0 0 274.39 794.15
  L 274.39 761.59
  A 0.33 0.33 0.0 0 1 275.00 761.42
  L 292.42 789.38
  A 0.33 0.33 0.0 0 0 292.70 789.54
  L 301.20 789.54
  A 0.33 0.33 0.0 0 0 301.48 789.38
  L 319.10 760.59
  A 0.33 0.33 0.0 0 1 319.71 760.76
  L 319.71 794.31
  A 0.33 0.33 0.0 0 0 320.04 794.64
  L 336.61 794.64
  A 0.33 0.33 0.0 0 0 336.94 794.31
  L 336.94 724.55
  A 0.33 0.33 0.0 0 0 336.61 724.22
  L 321.89 724.22
  A 0.33 0.33 0.0 0 0 321.60 724.39
  L 297.80 765.63
  A 0.33 0.33 0.0 0 1 297.23 765.64
  L 271.51 724.34
  A 0.33 0.33 0.0 0 0 271.23 724.18
  L 257.58 724.18
  A 0.33 0.33 0.0 0 0 257.25 724.51
  L 257.25 794.15
  A 0.33 0.33 0.0 0 0 257.58 794.48
  L 274.06 794.48
  Z
  M 526.55 794.65
  A 0.42 0.42 0.0 0 0 526.97 794.23
  L 526.97 740.17
  A 0.42 0.42 0.0 0 1 527.39 739.75
  L 547.17 739.75
  A 0.42 0.42 0.0 0 0 547.59 739.33
  L 547.59 724.67
  A 0.42 0.42 0.0 0 0 547.17 724.25
  L 488.03 724.25
  A 0.42 0.42 0.0 0 0 487.61 724.67
  L 487.61 739.35
  A 0.42 0.42 0.0 0 0 488.03 739.77
  L 508.38 739.77
  A 0.42 0.42 0.0 0 1 508.80 740.19
  L 508.80 794.23
  A 0.42 0.42 0.0 0 0 509.22 794.65
  L 526.55 794.65
  Z
  M 581.23 724.18
  Q 577.01 724.19 572.76 724.18
  A 0.80 0.79 -78.1 0 0 572.03 724.66
  L 542.01 794.03
  A 0.48 0.48 0.0 0 0 542.45 794.70
  L 560.44 794.70
  A 0.39 0.39 0.0 0 0 560.80 794.46
  L 566.80 780.59
  A 0.32 0.31 11.1 0 1 567.09 780.41
  Q 574.20 780.41 581.36 780.40
  Q 588.52 780.38 595.63 780.34
  A 0.32 0.31 -11.3 0 1 595.91 780.52
  L 601.98 794.37
  A 0.39 0.39 0.0 0 0 602.34 794.60
  L 620.33 794.52
  A 0.48 0.48 0.0 0 0 620.76 793.85
  L 590.43 724.62
  A 0.80 0.79 77.8 0 0 589.69 724.14
  Q 585.45 724.17 581.23 724.18
  Z
  M 675.37 772.00
  C 684.97 767.73 689.10 757.46 688.08 747.25
  Q 686.52 731.64 671.64 726.38
  Q 666.26 724.48 661.97 724.35
  Q 651.24 724.01 628.11 724.38
  Q 627.51 724.39 627.51 724.99
  L 627.51 793.94
  Q 627.51 794.61 628.18 794.61
  L 645.07 794.61
  Q 645.61 794.61 645.61 794.07
  L 645.61 776.81
  Q 645.61 776.22 646.21 776.22
  L 656.06 776.22
  Q 656.54 776.22 656.83 776.60
  L 670.19 794.49
  A 0.24 0.08 59.0 0 0 670.34 794.62
  L 689.75 794.62
  A 0.52 0.52 0.0 0 0 690.17 793.79
  L 674.99 773.45
  Q 674.27 772.49 675.37 772.00
  Z
  M 698.38 724.88
  L 698.38 793.88
  A 0.55 0.55 0.0 0 0 698.93 794.43
  L 733.09 794.43
  A 34.61 31.69 -0.0 0 0 767.70 762.74
  L 767.70 756.02
  A 34.61 31.69 0.0 0 0 733.09 724.33
  L 698.93 724.33
  A 0.55 0.55 0.0 0 0 698.38 724.88
  Z"
/>
<path fill="#000000" d="
  M 371.68 606.90
  A 0.11 0.11 0.0 0 0 371.50 606.98
  Q 370.96 625.40 378.10 642.17
  C 380.22 647.15 384.27 652.53 389.57 654.98
  Q 391.93 656.08 397.53 656.64
  C 406.42 657.54 419.01 659.25 425.53 665.48
  A 1.94 1.92 -23.6 0 0 426.92 666.02
  C 486.52 664.45 545.39 664.93 604.27 668.47
  C 613.88 669.05 664.24 671.94 667.67 679.95
  C 671.85 689.71 607.84 694.12 601.79 694.57
  C 546.04 698.65 490.25 699.63 433.77 698.56
  Q 401.78 697.95 375.05 696.18
  Q 361.84 695.31 348.53 693.06
  C 342.88 692.11 326.94 688.85 324.38 683.31
  C 322.83 679.95 326.25 677.79 328.76 675.68
  Q 329.14 675.36 329.24 674.88
  C 331.01 666.37 338.96 662.62 346.85 662.11
  A 0.95 0.93 8.9 0 0 347.66 661.53
  Q 352.86 649.22 356.63 638.08
  C 361.37 624.08 362.83 610.75 361.44 596.34
  Q 361.39 595.84 361.06 595.46
  Q 350.71 583.71 345.36 569.15
  C 340.28 555.31 342.70 541.68 357.75 536.04
  Q 358.54 535.74 358.67 534.91
  C 360.21 524.98 363.16 521.49 371.83 516.83
  Q 372.28 516.58 372.24 516.07
  C 371.84 511.31 371.43 507.66 372.86 502.78
  C 375.19 494.81 380.58 491.39 388.66 490.42
  Q 389.17 490.36 389.48 489.96
  Q 392.56 486.00 399.95 476.95
  Q 405.82 469.77 410.18 459.43
  C 410.44 458.81 410.64 457.31 410.56 456.49
  Q 409.93 449.76 409.73 443.01
  Q 409.01 417.58 423.13 396.84
  Q 426.10 392.48 432.63 386.37
  Q 437.64 381.69 451.34 367.59
  Q 508.15 309.10 564.83 250.48
  Q 572.88 242.16 576.63 239.52
  Q 583.42 234.74 591.01 231.98
  C 605.20 226.82 622.73 229.84 636.56 235.49
  Q 668.77 248.63 692.49 274.90
  C 712.68 297.27 741.62 336.72 721.52 367.31
  Q 717.75 373.05 712.37 378.62
  Q 708.06 383.09 662.19 430.20
  Q 620.84 472.67 578.55 516.39
  Q 568.42 526.86 564.08 530.19
  Q 545.40 544.52 521.38 544.33
  Q 513.37 544.27 507.37 543.91
  C 503.87 543.70 501.25 546.35 498.70 548.95
  Q 485.82 562.13 476.12 571.11
  Q 474.94 572.21 473.23 573.53
  Q 472.83 573.84 472.77 574.34
  Q 471.37 586.80 459.44 591.19
  Q 453.53 593.36 443.46 595.66
  A 1.51 1.48 -76.0 0 0 442.63 596.17
  Q 441.69 597.33 439.90 599.78
  Q 432.91 609.32 422.56 608.34
  Q 421.97 608.28 421.57 608.72
  C 420.91 609.44 420.20 611.17 419.66 611.94
  Q 413.97 620.15 404.07 621.31
  C 392.82 622.63 379.81 614.41 371.68 606.90
  Z
  M 504.49 531.73
  Q 508.74 530.96 514.07 531.42
  C 520.77 532.00 525.04 531.93 531.13 531.14
  C 544.25 529.44 555.66 522.95 564.77 513.52
  Q 589.71 487.75 616.34 460.49
  Q 625.06 451.56 630.25 446.12
  Q 646.81 428.76 652.49 423.31
  Q 657.17 418.81 658.54 415.44
  C 664.93 399.75 657.20 380.44 649.04 367.19
  Q 628.75 334.21 597.23 312.26
  C 581.31 301.18 556.54 289.32 537.22 298.11
  Q 534.23 299.47 529.97 303.76
  Q 527.61 306.13 517.00 317.00
  Q 465.88 369.33 448.64 387.06
  C 444.10 391.73 438.50 396.48 434.58 401.34
  C 424.98 413.23 421.23 429.04 422.01 444.79
  Q 422.55 455.55 422.55 455.57
  C 422.61 461.73 419.85 466.97 416.71 472.23
  Q 410.74 482.20 403.44 490.98
  Q 403.06 491.44 403.64 491.59
  C 430.44 498.49 452.98 519.93 465.30 543.99
  Q 469.12 551.45 470.85 559.77
  A 0.18 0.18 0.0 0 0 471.16 559.86
  Q 480.32 550.60 489.70 541.49
  C 495.20 536.14 498.10 532.88 504.49 531.73
  Z
  M 445.59 586.43
  Q 445.18 589.24 445.15 589.43
  A 0.32 0.32 0.0 0 0 445.59 589.77
  C 454.57 585.96 461.50 580.70 460.32 569.76
  C 457.52 543.68 436.42 520.64 414.23 508.20
  Q 404.41 502.70 394.84 501.43
  C 384.72 500.08 380.11 505.39 378.01 514.27
  Q 377.85 514.95 378.55 514.93
  Q 388.79 514.68 396.62 518.01
  Q 419.68 527.84 434.24 549.19
  C 441.55 559.92 447.48 573.59 445.59 586.43
  Z
  M 409.25 568.14
  Q 396.11 554.15 379.25 546.53
  C 367.88 541.38 350.32 538.66 347.72 555.97
  Q 347.64 556.46 348.13 556.40
  Q 351.05 556.07 354.11 557.14
  C 363.93 560.58 371.76 566.60 379.17 574.07
  Q 391.49 586.50 398.09 601.39
  Q 401.46 609.01 400.90 616.39
  Q 400.85 616.95 401.41 616.96
  Q 407.70 617.06 412.79 612.68
  Q 420.90 605.71 417.94 595.10
  Q 416.97 591.65 419.00 594.60
  Q 421.54 598.31 422.10 603.65
  A 0.89 0.89 0.0 0 0 423.42 604.32
  C 438.21 595.92 435.97 577.41 429.20 564.36
  Q 416.73 540.37 393.28 529.06
  C 384.24 524.70 366.58 520.93 363.24 534.39
  A 0.39 0.38 -83.6 0 0 363.62 534.87
  C 383.97 534.50 399.87 551.68 409.39 568.04
  A 0.09 0.09 0.0 0 1 409.25 568.14
  Z
  M 349.81 671.15
  Q 349.29 670.85 348.36 670.17
  C 342.88 666.15 334.60 672.66 335.98 679.02
  C 339.07 693.19 378.59 690.22 388.69 689.58
  C 399.12 688.92 421.31 688.67 422.65 674.88
  C 423.52 665.89 399.22 663.65 392.71 662.88
  C 376.66 660.98 370.26 645.79 366.96 631.27
  Q 366.53 629.41 366.08 631.26
  Q 361.39 650.33 351.47 670.63
  A 1.20 1.19 27.5 0 1 349.81 671.15
  Z"
/>
<path fill="#e88c23" d="
  M 504.49 531.73
  C 498.10 532.88 495.20 536.14 489.70 541.49
  Q 480.32 550.60 471.16 559.86
  A 0.18 0.18 0.0 0 1 470.85 559.77
  Q 469.12 551.45 465.30 543.99
  C 452.98 519.93 430.44 498.49 403.64 491.59
  Q 403.06 491.44 403.44 490.98
  Q 410.74 482.20 416.71 472.23
  C 419.85 466.97 422.61 461.73 422.55 455.57
  Q 422.55 455.55 422.01 444.79
  C 421.23 429.04 424.98 413.23 434.58 401.34
  C 438.50 396.48 444.10 391.73 448.64 387.06
  Q 465.88 369.33 517.00 317.00
  Q 527.61 306.13 529.97 303.76
  Q 534.23 299.47 537.22 298.11
  C 556.54 289.32 581.31 301.18 597.23 312.26
  Q 628.75 334.21 649.04 367.19
  C 657.20 380.44 664.93 399.75 658.54 415.44
  Q 657.17 418.81 652.49 423.31
  Q 646.81 428.76 630.25 446.12
  Q 625.06 451.56 616.34 460.49
  Q 589.71 487.75 564.77 513.52
  C 555.66 522.95 544.25 529.44 531.13 531.14
  C 525.04 531.93 520.77 532.00 514.07 531.42
  Q 508.74 530.96 504.49 531.73
  Z
  M 574.57 431.34
  L 552.48 458.88
  Q 552.21 459.21 552.43 459.57
  L 569.25 486.57
  A 0.36 0.36 0.0 0 0 569.83 486.62
  L 586.58 467.46
  A 1.80 1.80 0.0 0 0 586.85 465.50
  L 581.72 454.88
  Q 581.53 454.47 581.82 454.13
  L 626.40 403.15
  Q 626.63 402.89 626.28 402.92
  L 555.07 409.08
  A 0.29 0.28 84.0 0 1 554.76 408.82
  L 547.07 335.29
  A 0.57 0.56 -26.8 0 0 546.09 334.97
  Q 524.95 358.08 502.35 380.26
  Q 502.10 380.50 501.80 380.32
  L 490.63 373.48
  Q 490.16 373.19 489.76 373.58
  L 472.90 390.29
  A 0.18 0.18 0.0 0 0 472.94 390.58
  L 502.87 408.91
  A 1.31 1.30 37.7 0 0 504.48 408.71
  L 528.85 383.47
  Q 529.79 382.50 529.93 383.85
  L 535.11 433.46
  Q 535.19 434.18 535.90 434.12
  L 574.27 430.80
  Q 575.06 430.73 574.57 431.34
  Z
  M 481.14 453.46
  Q 508.40 475.00 523.26 505.47
  Q 527.03 513.21 528.31 519.94
  Q 528.52 521.04 528.72 519.94
  Q 530.03 512.66 527.13 505.65
  C 518.48 484.82 503.96 466.61 486.43 452.96
  C 475.01 444.06 460.35 434.95 446.02 434.30
  Q 442.86 434.16 445.94 434.91
  C 458.07 437.88 470.77 445.27 481.14 453.46
  Z"
/>
<path fill="#000000" d="
  M 574.27 430.80
  L 535.90 434.12
  Q 535.19 434.18 535.11 433.46
  L 529.93 383.85
  Q 529.79 382.50 528.85 383.47
  L 504.48 408.71
  A 1.31 1.30 37.7 0 1 502.87 408.91
  L 472.94 390.58
  A 0.18 0.18 0.0 0 1 472.90 390.29
  L 489.76 373.58
  Q 490.16 373.19 490.63 373.48
  L 501.80 380.32
  Q 502.10 380.50 502.35 380.26
  Q 524.95 358.08 546.09 334.97
  A 0.57 0.56 -26.8 0 1 547.07 335.29
  L 554.76 408.82
  A 0.29 0.28 84.0 0 0 555.07 409.08
  L 626.28 402.92
  Q 626.63 402.89 626.40 403.15
  L 581.82 454.13
  Q 581.53 454.47 581.72 454.88
  L 586.85 465.50
  A 1.80 1.80 0.0 0 1 586.58 467.46
  L 569.83 486.62
  A 0.36 0.36 0.0 0 1 569.25 486.57
  L 552.43 459.57
  Q 552.21 459.21 552.48 458.88
  L 574.57 431.34
  Q 575.06 430.73 574.27 430.80
  Z"
/>
<path fill="#000000" d="
  M 481.14 453.46
  C 470.77 445.27 458.07 437.88 445.94 434.91
  Q 442.86 434.16 446.02 434.30
  C 460.35 434.95 475.01 444.06 486.43 452.96
  C 503.96 466.61 518.48 484.82 527.13 505.65
  Q 530.03 512.66 528.72 519.94
  Q 528.52 521.04 528.31 519.94
  Q 527.03 513.21 523.26 505.47
  Q 508.40 475.00 481.14 453.46
  Z"
/>
<path fill="#e88c23" d="
  M 445.59 586.43
  C 447.48 573.59 441.55 559.92 434.24 549.19
  Q 419.68 527.84 396.62 518.01
  Q 388.79 514.68 378.55 514.93
  Q 377.85 514.95 378.01 514.27
  C 380.11 505.39 384.72 500.08 394.84 501.43
  Q 404.41 502.70 414.23 508.20
  C 436.42 520.64 457.52 543.68 460.32 569.76
  C 461.50 580.70 454.57 585.96 445.59 589.77
  A 0.32 0.32 0.0 0 1 445.15 589.43
  Q 445.18 589.24 445.59 586.43
  Z"
/>
<path fill="#e88c23" d="
  M 409.39 568.04
  C 399.87 551.68 383.97 534.50 363.62 534.87
  A 0.39 0.38 -83.6 0 1 363.24 534.39
  C 366.58 520.93 384.24 524.70 393.28 529.06
  Q 416.73 540.37 429.20 564.36
  C 435.97 577.41 438.21 595.92 423.42 604.32
  A 0.89 0.89 0.0 0 1 422.10 603.65
  Q 421.54 598.31 419.00 594.60
  Q 416.97 591.65 417.94 595.10
  Q 420.90 605.71 412.79 612.68
  Q 407.70 617.06 401.41 616.96
  Q 400.85 616.95 400.90 616.39
  Q 401.46 609.01 398.09 601.39
  Q 391.49 586.50 379.17 574.07
  C 371.76 566.60 363.93 560.58 354.11 557.14
  Q 351.05 556.07 348.13 556.40
  Q 347.64 556.46 347.72 555.97
  C 350.32 538.66 367.88 541.38 379.25 546.53
  Q 396.11 554.15 409.25 568.14
  A 0.09 0.09 0.0 0 0 409.39 568.04
  Z"
/>
<path fill="#000000" d="
  M 325.96 598.92
  Q 326.95 599.00 327.68 599.83
  C 333.75 606.76 337.71 618.11 335.83 627.25
  C 334.48 633.86 329.59 639.13 322.62 638.54
  C 315.64 637.95 311.70 631.94 311.48 625.20
  C 311.16 615.87 316.96 605.34 324.11 599.53
  Q 324.97 598.83 325.96 598.92
  Z
  M 325.05 609.23
  C 321.82 614.49 316.04 624.43 319.76 629.79
  Q 322.40 633.60 325.94 630.79
  C 331.76 626.16 328.51 614.92 325.51 609.24
  A 0.26 0.26 0.0 0 0 325.05 609.23
  Z"
/>
<path fill="#e88c23" d="
  M 319.76 629.79
  C 316.04 624.43 321.82 614.49 325.05 609.23
  A 0.26 0.26 0.0 0 1 325.51 609.24
  C 328.51 614.92 331.76 626.16 325.94 630.79
  Q 322.40 633.60 319.76 629.79
  Z"
/>
<path fill="#e88c23" d="
  M 349.81 671.15
  A 1.20 1.19 27.5 0 0 351.47 670.63
  Q 361.39 650.33 366.08 631.26
  Q 366.53 629.41 366.96 631.27
  C 370.26 645.79 376.66 660.98 392.71 662.88
  C 399.22 663.65 423.52 665.89 422.65 674.88
  C 421.31 688.67 399.12 688.92 388.69 689.58
  C 378.59 690.22 339.07 693.19 335.98 679.02
  C 334.60 672.66 342.88 666.15 348.36 670.17
  Q 349.29 670.85 349.81 671.15
  Z"
/>
<path fill="#000000" d="
  M 383.88 723.39
  C 405.33 722.93 422.14 736.57 422.63 758.79
  C 423.11 781.00 406.90 795.37 385.45 795.83
  C 363.99 796.30 347.18 782.65 346.70 760.44
  C 346.22 738.22 362.42 723.86 383.88 723.39
  Z
  M 403.8633 756.5649
  A 17.65 17.65 0.0 0 0 385.5192 739.6374
  L 382.1020 739.7747
  A 17.65 17.65 0.0 0 0 365.1745 758.1188
  L 365.3567 762.6551
  A 17.65 17.65 0.0 0 0 383.7008 779.5826
  L 387.1180 779.4453
  A 17.65 17.65 0.0 0 0 404.0455 761.1012
  L 403.8633 756.5649
  Z"
/>
<path fill="#000000" d="
  M 449.13 740.92
  C 446.34 743.09 447.61 746.98 450.17 748.61
  Q 453.45 750.71 457.90 751.67
  C 472.30 754.81 487.71 757.70 485.66 776.72
  C 484.63 786.31 477.85 791.85 468.67 794.43
  C 457.72 797.50 436.48 795.82 427.20 788.34
  A 0.81 0.81 0.0 0 1 426.96 787.38
  L 432.67 774.17
  A 0.45 0.45 0.0 0 1 433.31 773.96
  Q 446.75 781.98 462.09 780.21
  C 463.78 780.02 466.85 778.48 467.40 776.47
  C 468.67 771.84 464.68 770.00 460.86 768.93
  C 454.00 767.02 446.84 765.85 440.56 762.85
  C 432.14 758.81 428.41 750.46 430.07 741.31
  C 431.94 731.03 440.06 726.00 449.99 724.13
  C 460.39 722.18 472.80 724.07 482.85 728.36
  A 0.82 0.82 0.0 0 1 483.28 729.44
  L 477.28 743.31
  A 0.84 0.84 0.0 0 1 476.12 743.72
  Q 464.33 737.43 451.62 739.53
  Q 450.73 739.67 449.13 740.92
  Z"
/>
<path fill="#000000" d="
  M 274.06 794.48
  L 257.58 794.48
  A 0.33 0.33 0.0 0 1 257.25 794.15
  L 257.25 724.51
  A 0.33 0.33 0.0 0 1 257.58 724.18
  L 271.23 724.18
  A 0.33 0.33 0.0 0 1 271.51 724.34
  L 297.23 765.64
  A 0.33 0.33 0.0 0 0 297.80 765.63
  L 321.60 724.39
  A 0.33 0.33 0.0 0 1 321.89 724.22
  L 336.61 724.22
  A 0.33 0.33 0.0 0 1 336.94 724.55
  L 336.94 794.31
  A 0.33 0.33 0.0 0 1 336.61 794.64
  L 320.04 794.64
  A 0.33 0.33 0.0 0 1 319.71 794.31
  L 319.71 760.76
  A 0.33 0.33 0.0 0 0 319.10 760.59
  L 301.48 789.38
  A 0.33 0.33 0.0 0 1 301.20 789.54
  L 292.70 789.54
  A 0.33 0.33 0.0 0 1 292.42 789.38
  L 275.00 761.42
  A 0.33 0.33 0.0 0 0 274.39 761.59
  L 274.39 794.15
  A 0.33 0.33 0.0 0 1 274.06 794.48
  Z"
/>
<path fill="#000000" d="
  M 526.55 794.65
  L 509.22 794.65
  A 0.42 0.42 0.0 0 1 508.80 794.23
  L 508.80 740.19
  A 0.42 0.42 0.0 0 0 508.38 739.77
  L 488.03 739.77
  A 0.42 0.42 0.0 0 1 487.61 739.35
  L 487.61 724.67
  A 0.42 0.42 0.0 0 1 488.03 724.25
  L 547.17 724.25
  A 0.42 0.42 0.0 0 1 547.59 724.67
  L 547.59 739.33
  A 0.42 0.42 0.0 0 1 547.17 739.75
  L 527.39 739.75
  A 0.42 0.42 0.0 0 0 526.97 740.17
  L 526.97 794.23
  A 0.42 0.42 0.0 0 1 526.55 794.65
  Z"
/>
<path fill="#000000" d="
  M 581.36 780.40
  Q 574.20 780.41 567.09 780.41
  A 0.32 0.31 11.1 0 0 566.80 780.59
  L 560.80 794.46
  A 0.39 0.39 0.0 0 1 560.44 794.70
  L 542.45 794.70
  A 0.48 0.48 0.0 0 1 542.01 794.03
  L 572.03 724.66
  A 0.80 0.79 -78.1 0 1 572.76 724.18
  Q 577.01 724.19 581.23 724.18
  Q 585.45 724.17 589.69 724.14
  A 0.80 0.79 77.8 0 1 590.43 724.62
  L 620.76 793.85
  A 0.48 0.48 0.0 0 1 620.33 794.52
  L 602.34 794.60
  A 0.39 0.39 0.0 0 1 601.98 794.37
  L 595.91 780.52
  A 0.32 0.31 -11.3 0 0 595.63 780.34
  Q 588.52 780.38 581.36 780.40
  Z
  M 572.68 765.77
  A 0.38 0.38 0.0 0 0 573.04 766.29
  L 589.61 766.11
  A 0.38 0.38 0.0 0 0 589.96 765.59
  L 581.46 745.11
  A 0.38 0.38 0.0 0 0 580.75 745.12
  L 572.68 765.77
  Z"
/>
<path fill="#000000" d="
  M 675.37 772.00
  Q 674.27 772.49 674.99 773.45
  L 690.17 793.79
  A 0.52 0.52 0.0 0 1 689.75 794.62
  L 670.34 794.62
  A 0.24 0.08 59.0 0 1 670.19 794.49
  L 656.83 776.60
  Q 656.54 776.22 656.06 776.22
  L 646.21 776.22
  Q 645.61 776.22 645.61 776.81
  L 645.61 794.07
  Q 645.61 794.61 645.07 794.61
  L 628.18 794.61
  Q 627.51 794.61 627.51 793.94
  L 627.51 724.99
  Q 627.51 724.39 628.11 724.38
  Q 651.24 724.01 661.97 724.35
  Q 666.26 724.48 671.64 726.38
  Q 686.52 731.64 688.08 747.25
  C 689.10 757.46 684.97 767.73 675.37 772.00
  Z
  M 645.71 740.24
  L 645.63 760.60
  A 0.45 0.45 0.0 0 0 646.08 761.05
  L 658.48 761.09
  A 11.37 9.62 0.2 0 0 669.89 751.51
  L 669.89 749.49
  A 11.37 9.62 0.2 0 0 658.56 739.83
  L 646.16 739.79
  A 0.45 0.45 0.0 0 0 645.71 740.24
  Z"
/>
<path fill="#000000" d="
  M 698.38 724.88
  A 0.55 0.55 0.0 0 1 698.93 724.33
  L 733.09 724.33
  A 34.61 31.69 0.0 0 1 767.70 756.02
  L 767.70 762.74
  A 34.61 31.69 -0.0 0 1 733.09 794.43
  L 698.93 794.43
  A 0.55 0.55 0.0 0 1 698.38 793.88
  L 698.38 724.88
  Z
  M 716.38 740.30
  L 716.38 778.60
  A 0.38 0.38 0.0 0 0 716.76 778.98
  L 730.72 778.98
  A 18.86 18.07 -0.0 0 0 749.58 760.91
  L 749.58 757.99
  A 18.86 18.07 0.0 0 0 730.72 739.92
  L 716.76 739.92
  A 0.38 0.38 0.0 0 0 716.38 740.30
  Z"
/>
<rect fill="#e4e4e4" x="-19.36" y="-19.92" transform="translate(384.61,759.61) rotate(-2.3)" width="38.72" height="39.84" rx="17.65"/>
<path fill="#e4e4e4" d="
  M 645.71 740.24
  A 0.45 0.45 0.0 0 1 646.16 739.79
  L 658.56 739.83
  A 11.37 9.62 0.2 0 1 669.89 749.49
  L 669.89 751.51
  A 11.37 9.62 0.2 0 1 658.48 761.09
  L 646.08 761.05
  A 0.45 0.45 0.0 0 1 645.63 760.60
  L 645.71 740.24
  Z"
/>
<path fill="#e4e4e4" d="
  M 716.38 740.30
  A 0.38 0.38 0.0 0 1 716.76 739.92
  L 730.72 739.92
  A 18.86 18.07 -0.0 0 1 749.58 757.99
  L 749.58 760.91
  A 18.86 18.07 -0.0 0 1 730.72 778.98
  L 716.76 778.98
  A 0.38 0.38 0.0 0 1 716.38 778.60
  L 716.38 740.30
  Z"
/>
<path fill="#e4e4e4" d="
  M 572.68 765.77
  L 580.75 745.12
  A 0.38 0.38 0.0 0 1 581.46 745.11
  L 589.96 765.59
  A 0.38 0.38 0.0 0 1 589.61 766.11
  L 573.04 766.29
  A 0.38 0.38 0.0 0 1 572.68 765.77
  Z"
/>
</svg>
